<svg xmlns='http://www.w3.org/2000/svg' xmlns:xlink='http://www.w3.org/1999/xlink' viewBox="0 0 25.920000000000005 54"><path transform="translate(-0.14400000000000002 51.84)" d="M6.19 2.16Q3.02 2.16 1.58 0.07Q0.14-2.02 0.14-5.47L0.14-5.47Q0.14-12.10 4.64-23.18Q9.14-34.27 14.76-43.06Q20.38-51.84 23.04-51.84L23.04-51.84Q24.26-51.84 25.13-49.93Q25.99-48.02 26.06-46.08L26.06-46.08Q26.06-42.77 23.40-36.40Q20.74-30.02 16.24-23.47Q11.74-16.92 6.62-12.89L6.62-12.89Q5.83-8.42 5.83-6.12L5.83-6.12Q5.83-3.60 6.66-2.38Q7.49-1.15 8.93-1.15L8.93-1.15Q11.45-1.15 14.29-4.50Q17.14-7.85 19.37-12.60L19.37-12.60L21.10-11.66Q17.93-5.11 14.11-1.48Q10.30 2.16 6.19 2.16L6.19 2.16ZM7.92-17.35Q11.81-21.53 15.23-27.14Q18.65-32.76 20.70-37.80Q22.75-42.84 22.75-45.29L22.75-45.29Q21.82-45.29 18.97-40.90Q16.13-36.50 13.00-29.99Q9.86-23.47 7.92-17.35L7.92-17.35Z"/></svg>